# xmcd
#
# Track frame offsets:
# 150
# 14206
# 38004
# 58025
# 74523
# 87571
# 102245
# 114494
# 128005
# 144071
#
# Disc length: 2161 seconds
#
#
# Revision: 0
# Processed by: cddbd v1.5.2PL0 Copyright (c) Steve Scherf et al.
# Submitted via: FreeRIP 2.95 
#
DISCID=89086f0a
DTITLE=Mikel Erentxun - El corredor de la suerte - CD1
DYEAR=2006
DGENRE=Pop
TTITLE0=Cartas de amor (cuando no hay amor)
TTITLE1=Marcos y Nerea
TTITLE2=Locuras
TTITLE3=Amigos de guardia
TTITLE4=Sólo tú
TTITLE5=Lifting
TTITLE6=Visitantes
TTITLE7=Esta vez
TTITLE8=Sweet home Louisiana
TTITLE9=Dispárame un tequiero
EXTD=
EXTT0=
EXTT1=
EXTT2=
EXTT3=
EXTT4=
EXTT5=
EXTT6=
EXTT7=
EXTT8=
EXTT9=
PLAYORDER=
